<?xml version="1.0" standalone="no"?>
<!DOCTYPE svg PUBLIC "-//W3C//DTD SVG 20010904//EN"
 "http://www.w3.org/TR/2001/REC-SVG-20010904/DTD/svg10.dtd">
<svg version="1.0" xmlns="http://www.w3.org/2000/svg"
 width="700.000000pt" height="700.000000pt" viewBox="0 0 700.000000 700.000000"
 preserveAspectRatio="xMidYMid meet">
<metadata>
Created by potrace 1.11, written by Peter Selinger 2001-2013
</metadata>
<g transform="translate(0.000000,700.000000) scale(0.100000,-0.100000)"
fill="#000000" stroke="none">
<path d="M3337 6684 c-1 -1 -42 -5 -92 -8 -144 -11 -289 -33 -445 -68 -137
-31 -162 -38 -290 -80 -677 -220 -1267 -670 -1667 -1273 -121 -182 -238 -407
-310 -595 -24 -62 -90 -258 -98 -290 -2 -8 -15 -60 -29 -115 -14 -55 -27 -113
-30 -130 -3 -16 -10 -57 -15 -90 -6 -33 -14 -80 -17 -105 -3 -25 -7 -56 -10
-70 -16 -103 -22 -418 -10 -600 6 -94 10 -132 30 -260 81 -517 293 -1012 615
-1435 52 -68 60 -78 163 -195 79 -89 241 -247 318 -309 25 -20 53 -44 64 -53
10 -9 69 -53 130 -96 333 -239 704 -410 1097 -507 137 -33 136 -33 310 -59
202 -30 498 -39 704 -23 1300 105 2411 998 2790 2243 42 136 37 119 64 244 28
131 36 178 57 329 23 168 22 542 -1 731 -12 88 -46 286 -61 350 -23 93 -55
212 -64 235 -4 11 -22 63 -40 115 -44 128 -140 340 -218 480 -427 765 -1151
1323 -1997 1538 -91 24 -208 48 -275 57 -25 3 -72 10 -105 15 -103 16 -214 23
-393 24 -95 1 -174 1 -175 0z"/>
</g>
</svg>
